{"title":"Amazing Medical Stories - The Eight Limbed Boy","uid":15884732,"size":364505234,"categoryP":"video","categoryS":"tv_shows","magnet":"?xt=urn:btih:b5eb4a2d5760f81048f75582de10fd043e946de4&amp;dn=Amazing+Medical+Stories+-+The+Eight+Limbed+Boy&amp;tr=udp%3A%2F%2Ftracker.leechers-paradise.org%3A6969&amp;tr=udp%3A%2F%2Fzer0day.ch%3A1337&amp;tr=udp%3A%2F%2Fopen.demonii.com%3A1337&amp;tr=udp%3A%2F%2Ftracker.coppersurfer.tk%3A6969&amp;tr=udp%3A%2F%2Fexodus.desync.com%3A6969","seeders":10,"leechers":2,"uploader":"Bullrout","files":1,"time":1474640010,"description":"Amazing Medical Stories - The Eight Limbed Boy\r\n\r\nIn one of India's most remote areas, a boy named Deepak was born with an extraordinary medical condition a parasitic twin. Half of his brother was fused with his chest giving Deepaks body four extra limbs.\r\n\r\nComplete name : Amazing Medical Stories - The Eight Limbed Boy.mp4\r\nFormat : MPEG-4\r\nFormat profile : Base Media / Version 2\r\nCodec ID : mp42 (mp42/isom/avc1)\r\nFile size : 348 MiB\r\nDuration : 43 min 31 s\r\nOverall bit rate mode : Variable\r\nOverall bit rate : 1 117 kb/s\r\n\r\nVideo\r\nID : 2\r\nFormat : AVC\r\nFormat/Info : Advanced Video Codec\r\nFormat profile :   \r\nFormat settings, CABAC : Yes\r\nFormat settings, ReFrames : 3 frames\r\nCodec ID : avc1\r\nCodec ID/Info : Advanced Video Coding\r\nDuration : 43 min 31 s\r\nBit rate mode : Variable\r\nBit rate : 985 kb/s\r\nMaximum bit rate : 1 000 kb/s\r\nWidth : 720 pixels\r\nHeight : 404 pixels\r\nDisplay aspect ratio : 16:9\r\nOriginal display aspect ratio : 16:9\r\nFrame rate mode : Constant\r\nFrame rate : 25.000 FPS\r\nStandard : PAL\r\nColor space : YUV\r\nChroma subsampling : 4:2:0\r\nBit depth : 8 bits\r\nScan type : Progressive\r\nBits/(Pixel*Frame) : 0.135\r\nStream size : 307 MiB (88%)\r\nWriting library : x264 core 112\r\nColor range : Limited\r\nColor primaries : BT.601 PAL\r\nTransfer characteristics : BT.470 System B, BT.470 System G\r\nMatrix coefficients : BT.601\r\n\r\nAudio\r\nID : 1\r\nFormat : AAC\r\nFormat/Info : Advanced Audio Codec\r\nFormat profile : LC\r\nCodec ID : 40\r\nDuration : 43 min 31 s\r\nBit rate mode : Variable\r\nBit rate : 128 kb/s\r\nMaximum bit rate : 576 kb/s\r\nChannel(s) : 2 channels\r\nChannel positions : Front: L R\r\nSampling rate : 48.0 kHz\r\nFrame rate : 46.875 FPS (1024 spf)\r\nCompression mode : Lossy\r\nStream size : 39.9 MiB (11%)","torrent":{"xt":"urn:btih:b5eb4a2d5760f81048f75582de10fd043e946de4","amp;dn":"Amazing+Medical+Stories+-+The+Eight+Limbed+Boy","amp;tr":["udp%3A%2F%2Ftracker.leechers-paradise.org%3A6969","udp%3A%2F%2Fzer0day.ch%3A1337","udp%3A%2F%2Fopen.demonii.com%3A1337","udp%3A%2F%2Ftracker.coppersurfer.tk%3A6969","udp%3A%2F%2Fexodus.desync.com%3A6969"],"infoHash":"b5eb4a2d5760f81048f75582de10fd043e946de4","infoHashBuffer":{"type":"Buffer","data":[181,235,74,45,87,96,248,16,72,247,85,130,222,16,253,4,62,148,109,228]},"announce":[],"urlList":[]}}